<?xml version="1.0" encoding="UTF-8" standalone="no"?><svg xmlns="http://www.w3.org/2000/svg" xmlns:xlink="http://www.w3.org/1999/xlink" contentScriptType="application/ecmascript" contentStyleType="text/css" height="901px" preserveAspectRatio="none" style="width:1015px;height:901px;" version="1.1" viewBox="0 0 1015 901" width="1015px" zoomAndPan="magnify"><defs><filter height="300%" id="f2eyh4be5i7hw" width="300%" x="-1" y="-1"><feGaussianBlur result="blurOut" stdDeviation="2.0"/><feColorMatrix in="blurOut" result="blurOut2" type="matrix" values="0 0 0 0 0 0 0 0 0 0 0 0 0 0 0 0 0 0 .4 0"/><feOffset dx="4.0" dy="4.0" in="blurOut2" result="blurOut3"/><feBlend in="SourceGraphic" in2="blurOut3" mode="normal"/></filter></defs><g><!--cluster Product-MarketingTariff--><rect fill="#FFFFFF" filter="url(#f2eyh4be5i7hw)" height="268" style="stroke: #000000; stroke-width: 1.5;" width="198" x="359" y="317"/><path d="M536,318 L536,327.6094 L526,337.6094 L359,337.6094 " fill="none" style="stroke: #000000; stroke-width: 1.5;"/><text fill="#000000" font-family="sans-serif" font-size="14" font-weight="bold" lengthAdjust="spacingAndGlyphs" textLength="167" x="362" y="332.5332">Product-MarketingTariff</text><!--cluster Action-MarketingTariff--><rect fill="#FFFFFF" filter="url(#f2eyh4be5i7hw)" height="272" style="stroke: #000000; stroke-width: 1.5;" width="208" x="600" y="618"/><path d="M766,619 L766,628.6094 L756,638.6094 L600,638.6094 " fill="none" style="stroke: #000000; stroke-width: 1.5;"/><text fill="#000000" font-family="sans-serif" font-size="14" font-weight="bold" lengthAdjust="spacingAndGlyphs" textLength="156" x="603" y="633.5332">Action-MarketingTariff</text><rect fill="#FEFECE" filter="url(#f2eyh4be5i7hw)" height="102.5625" style="stroke: #A80036; stroke-width: 1.5;" width="166" x="375" y="353"/><text fill="#000000" font-family="sans-serif" font-size="12" lengthAdjust="spacingAndGlyphs" textLength="95" x="410.5" y="367.457">MarketingProduct</text><line style="stroke: #A80036; stroke-width: 1.5;" x1="376" x2="540" y1="372.0938" y2="372.0938"/><text fill="#000000" font-family="sans-serif" font-size="10" font-weight="bold" lengthAdjust="spacingAndGlyphs" textLength="39" x="381" y="386.4746">Id = 456</text><text fill="#000000" font-family="sans-serif" font-size="10" font-weight="bold" lengthAdjust="spacingAndGlyphs" textLength="87" x="381" y="399.0527">Modified = 15 : 00</text><text fill="#000000" font-family="sans-serif" font-size="10" lengthAdjust="spacingAndGlyphs" textLength="115" x="381" y="411.6309">Type = "MarketingTariff"</text><text fill="#000000" font-family="sans-serif" font-size="10" lengthAdjust="spacingAndGlyphs" textLength="154" x="381" y="424.209">Title = "Маркетинговый тариф"</text><text fill="#000000" font-family="sans-serif" font-size="10" lengthAdjust="spacingAndGlyphs" textLength="51" x="381" y="436.7871">Category =</text><text fill="#000000" font-family="sans-serif" font-size="10" font-weight="bold" lengthAdjust="spacingAndGlyphs" textLength="18" x="435" y="436.7871">890</text><text fill="#000000" font-family="sans-serif" font-size="10" lengthAdjust="spacingAndGlyphs" textLength="44" x="381" y="449.3652">Actions =</text><text fill="#000000" font-family="sans-serif" font-size="10" font-weight="bold" lengthAdjust="spacingAndGlyphs" textLength="24" x="428" y="449.3652">[123]</text><rect fill="#FEFECE" filter="url(#f2eyh4be5i7hw)" height="52.25" style="stroke: #A80036; stroke-width: 1.5;" width="90" x="413" y="517"/><text fill="#000000" font-family="sans-serif" font-size="12" lengthAdjust="spacingAndGlyphs" textLength="76" x="420" y="531.457">TariffCategory</text><line style="stroke: #A80036; stroke-width: 1.5;" x1="414" x2="502" y1="536.0938" y2="536.0938"/><text fill="#000000" font-family="sans-serif" font-size="10" font-weight="bold" lengthAdjust="spacingAndGlyphs" textLength="39" x="419" y="550.4746">Id = 890</text><text fill="#000000" font-family="sans-serif" font-size="10" lengthAdjust="spacingAndGlyphs" textLength="64" x="419" y="563.0527">Alias = "tariff"</text><rect fill="#FEFECE" filter="url(#f2eyh4be5i7hw)" height="89.9844" style="stroke: #A80036; stroke-width: 1.5;" width="176" x="616" y="654"/><text fill="#000000" font-family="sans-serif" font-size="12" lengthAdjust="spacingAndGlyphs" textLength="95" x="656.5" y="668.457">MarketingProduct</text><line style="stroke: #A80036; stroke-width: 1.5;" x1="617" x2="791" y1="673.0938" y2="673.0938"/><text fill="#000000" font-family="sans-serif" font-size="10" font-weight="bold" lengthAdjust="spacingAndGlyphs" textLength="39" x="622" y="687.4746">Id = 456</text><text fill="#000000" font-family="sans-serif" font-size="10" font-weight="bold" lengthAdjust="spacingAndGlyphs" textLength="87" x="622" y="700.0527">Modified = 15 : 00</text><text fill="#000000" font-family="sans-serif" font-size="10" lengthAdjust="spacingAndGlyphs" textLength="115" x="622" y="712.6309">Type = "MarketingTariff"</text><text fill="#000000" font-family="sans-serif" font-size="10" lengthAdjust="spacingAndGlyphs" textLength="164" x="622" y="725.209">Description = "Описание тарифа"</text><text fill="#000000" font-family="sans-serif" font-size="10" lengthAdjust="spacingAndGlyphs" textLength="40" x="622" y="737.7871">Parent =</text><text fill="#000000" font-family="sans-serif" font-size="10" font-weight="bold" lengthAdjust="spacingAndGlyphs" textLength="18" x="665" y="737.7871">789</text><rect fill="#FEFECE" filter="url(#f2eyh4be5i7hw)" height="52.25" style="stroke: #A80036; stroke-width: 1.5;" width="112" x="648" y="822"/><text fill="#000000" font-family="sans-serif" font-size="12" lengthAdjust="spacingAndGlyphs" textLength="95" x="656.5" y="836.457">MarketingProduct</text><line style="stroke: #A80036; stroke-width: 1.5;" x1="649" x2="759" y1="841.0938" y2="841.0938"/><text fill="#000000" font-family="sans-serif" font-size="10" font-weight="bold" lengthAdjust="spacingAndGlyphs" textLength="39" x="654" y="855.4746">Id = 789</text><text fill="#000000" font-family="sans-serif" font-size="10" lengthAdjust="spacingAndGlyphs" textLength="100" x="654" y="868.0527">Alias = "parent_tariff"</text><rect fill="#FEFECE" filter="url(#f2eyh4be5i7hw)" height="77.4063" style="stroke: #A80036; stroke-width: 1.5;" width="131" x="491.5" y="8"/><text fill="#000000" font-family="sans-serif" font-size="12" lengthAdjust="spacingAndGlyphs" textLength="33" x="540.5" y="22.457">Action</text><line style="stroke: #A80036; stroke-width: 1.5;" x1="492.5" x2="621.5" y1="27.0938" y2="27.0938"/><text fill="#000000" font-family="sans-serif" font-size="10" font-weight="bold" lengthAdjust="spacingAndGlyphs" textLength="39" x="497.5" y="41.4746">Id = 123</text><text fill="#000000" font-family="sans-serif" font-size="10" lengthAdjust="spacingAndGlyphs" textLength="38" x="497.5" y="54.0527">Tariffs =</text><text fill="#000000" font-family="sans-serif" font-size="10" font-weight="bold" lengthAdjust="spacingAndGlyphs" textLength="48" x="538.5" y="54.0527">[234, 345]</text><text fill="#000000" font-family="sans-serif" font-size="10" lengthAdjust="spacingAndGlyphs" textLength="80" x="497.5" y="66.6309">MarketingTariff =</text><text fill="#000000" font-family="sans-serif" font-size="10" font-weight="bold" lengthAdjust="spacingAndGlyphs" textLength="18" x="580.5" y="66.6309">456</text><text fill="#000000" font-family="sans-serif" font-size="10" lengthAdjust="spacingAndGlyphs" textLength="92" x="497.5" y="79.209">MarketingDevices =</text><text fill="#000000" font-family="sans-serif" font-size="10" font-weight="bold" lengthAdjust="spacingAndGlyphs" textLength="24" x="592.5" y="79.209">[567]</text><rect fill="#FEFECE" filter="url(#f2eyh4be5i7hw)" height="64.8281" style="stroke: #A80036; stroke-width: 1.5;" width="125" x="143.5" y="175.5"/><text fill="#000000" font-family="sans-serif" font-size="12" lengthAdjust="spacingAndGlyphs" textLength="42" x="185" y="189.957">Product</text><line style="stroke: #A80036; stroke-width: 1.5;" x1="144.5" x2="267.5" y1="194.5938" y2="194.5938"/><text fill="#000000" font-family="sans-serif" font-size="10" font-weight="bold" lengthAdjust="spacingAndGlyphs" textLength="39" x="149.5" y="208.9746">Id = 234</text><text fill="#000000" font-family="sans-serif" font-size="10" lengthAdjust="spacingAndGlyphs" textLength="69" x="149.5" y="221.5527">Type = "Tariff"</text><text fill="#000000" font-family="sans-serif" font-size="10" lengthAdjust="spacingAndGlyphs" textLength="92" x="149.5" y="234.1309">MarketingProduct =</text><text fill="#000000" font-family="sans-serif" font-size="10" font-weight="bold" lengthAdjust="spacingAndGlyphs" textLength="18" x="244.5" y="234.1309">456</text><rect fill="#FEFECE" filter="url(#f2eyh4be5i7hw)" height="64.8281" style="stroke: #A80036; stroke-width: 1.5;" width="125" x="395.5" y="175.5"/><text fill="#000000" font-family="sans-serif" font-size="12" lengthAdjust="spacingAndGlyphs" textLength="42" x="437" y="189.957">Product</text><line style="stroke: #A80036; stroke-width: 1.5;" x1="396.5" x2="519.5" y1="194.5938" y2="194.5938"/><text fill="#000000" font-family="sans-serif" font-size="10" font-weight="bold" lengthAdjust="spacingAndGlyphs" textLength="39" x="401.5" y="208.9746">Id = 345</text><text fill="#000000" font-family="sans-serif" font-size="10" lengthAdjust="spacingAndGlyphs" textLength="69" x="401.5" y="221.5527">Type = "Tariff"</text><text fill="#000000" font-family="sans-serif" font-size="10" lengthAdjust="spacingAndGlyphs" textLength="92" x="401.5" y="234.1309">MarketingProduct =</text><text fill="#000000" font-family="sans-serif" font-size="10" font-weight="bold" lengthAdjust="spacingAndGlyphs" textLength="18" x="496.5" y="234.1309">456</text><rect fill="#FEFECE" filter="url(#f2eyh4be5i7hw)" height="89.9844" style="stroke: #A80036; stroke-width: 1.5;" width="207" x="690.5" y="163"/><text fill="#000000" font-family="sans-serif" font-size="12" lengthAdjust="spacingAndGlyphs" textLength="95" x="746.5" y="177.457">MarketingProduct</text><line style="stroke: #A80036; stroke-width: 1.5;" x1="691.5" x2="896.5" y1="182.0938" y2="182.0938"/><text fill="#000000" font-family="sans-serif" font-size="10" font-weight="bold" lengthAdjust="spacingAndGlyphs" textLength="39" x="696.5" y="196.4746">Id = 567</text><text fill="#000000" font-family="sans-serif" font-size="10" font-weight="bold" lengthAdjust="spacingAndGlyphs" textLength="87" x="696.5" y="209.0527">Modified = 14 : 00</text><text fill="#000000" font-family="sans-serif" font-size="10" lengthAdjust="spacingAndGlyphs" textLength="123" x="696.5" y="221.6309">Type = "MarketingDevice"</text><text fill="#000000" font-family="sans-serif" font-size="10" lengthAdjust="spacingAndGlyphs" textLength="195" x="696.5" y="234.209">Description = "Описание оборудования"</text><text fill="#000000" font-family="sans-serif" font-size="10" lengthAdjust="spacingAndGlyphs" textLength="40" x="696.5" y="246.7871">Parent =</text><text fill="#000000" font-family="sans-serif" font-size="10" font-weight="bold" lengthAdjust="spacingAndGlyphs" textLength="18" x="739.5" y="246.7871">678</text><rect fill="#FEFECE" filter="url(#f2eyh4be5i7hw)" height="52.25" style="stroke: #A80036; stroke-width: 1.5;" width="123" x="732.5" y="378.5"/><text fill="#000000" font-family="sans-serif" font-size="12" lengthAdjust="spacingAndGlyphs" textLength="95" x="746.5" y="392.957">MarketingProduct</text><line style="stroke: #A80036; stroke-width: 1.5;" x1="733.5" x2="854.5" y1="397.5938" y2="397.5938"/><text fill="#000000" font-family="sans-serif" font-size="10" font-weight="bold" lengthAdjust="spacingAndGlyphs" textLength="39" x="738.5" y="411.9746">Id = 678</text><text fill="#000000" font-family="sans-serif" font-size="10" lengthAdjust="spacingAndGlyphs" textLength="111" x="738.5" y="424.5527">Alias = "parent_device"</text><path d="M233,521.5 L233,564.2031 L343,564.2031 L343,531.5 L333,521.5 L233,521.5 " fill="#FBFB77" filter="url(#f2eyh4be5i7hw)" style="stroke: #A80036; stroke-width: 1.0;"/><path d="M333,521.5 L333,531.5 L343,531.5 L333,521.5 " fill="#FBFB77" style="stroke: #A80036; stroke-width: 1.0;"/><text fill="#000000" font-family="sans-serif" font-size="13" lengthAdjust="spacingAndGlyphs" textLength="34" x="239" y="539.9951">Same</text><text fill="#000000" font-family="sans-serif" font-size="13" font-weight="bold" lengthAdjust="spacingAndGlyphs" textLength="12" x="277" y="539.9951">Id</text><text fill="#000000" font-family="sans-serif" font-size="13" lengthAdjust="spacingAndGlyphs" textLength="47" x="239" y="556.3467">Different</text><text fill="#000000" font-family="sans-serif" font-size="13" font-weight="bold" lengthAdjust="spacingAndGlyphs" textLength="38" x="290" y="556.3467">Fields</text><rect fill="#FEFECE" filter="url(#f2eyh4be5i7hw)" height="64.8281" style="stroke: #A80036; stroke-width: 1.5;" width="102" x="6" y="175.5"/><text fill="#000000" font-family="sans-serif" font-size="12" lengthAdjust="spacingAndGlyphs" textLength="40" x="37" y="189.957">Region</text><line style="stroke: #A80036; stroke-width: 1.5;" x1="7" x2="107" y1="194.5938" y2="194.5938"/><text fill="#000000" font-family="sans-serif" font-size="10" font-weight="bold" lengthAdjust="spacingAndGlyphs" textLength="45" x="12" y="208.9746">Id = 1234</text><text fill="#000000" font-family="sans-serif" font-size="10" lengthAdjust="spacingAndGlyphs" textLength="90" x="12" y="221.5527">Name = "Российя"</text><text fill="#000000" font-family="sans-serif" font-size="10" lengthAdjust="spacingAndGlyphs" textLength="40" x="12" y="234.1309">Parent =</text><text fill="#000000" font-family="sans-serif" font-size="10" font-weight="bold" lengthAdjust="spacingAndGlyphs" textLength="18" x="55" y="234.1309">null</text><rect fill="#FEFECE" filter="url(#f2eyh4be5i7hw)" height="64.8281" style="stroke: #A80036; stroke-width: 1.5;" width="97" x="8.5" y="14"/><text fill="#000000" font-family="sans-serif" font-size="12" lengthAdjust="spacingAndGlyphs" textLength="40" x="37" y="28.457">Region</text><line style="stroke: #A80036; stroke-width: 1.5;" x1="9.5" x2="104.5" y1="33.0938" y2="33.0938"/><text fill="#000000" font-family="sans-serif" font-size="10" font-weight="bold" lengthAdjust="spacingAndGlyphs" textLength="45" x="14.5" y="47.4746">Id = 3456</text><text fill="#000000" font-family="sans-serif" font-size="10" lengthAdjust="spacingAndGlyphs" textLength="85" x="14.5" y="60.0527">Name = "Москва"</text><text fill="#000000" font-family="sans-serif" font-size="10" lengthAdjust="spacingAndGlyphs" textLength="40" x="14.5" y="72.6309">Parent =</text><text fill="#000000" font-family="sans-serif" font-size="10" font-weight="bold" lengthAdjust="spacingAndGlyphs" textLength="24" x="57.5" y="72.6309">1234</text><path d="M141,25 L141,42.5 L105.5996,46.5 L141,50.5 L141,67.7031 A0,0 0 0 0 141,67.7031 L271,67.7031 A0,0 0 0 0 271,67.7031 L271,35 L261,25 L141,25 A0,0 0 0 0 141,25 " fill="#FBFB77" filter="url(#f2eyh4be5i7hw)" style="stroke: #A80036; stroke-width: 1.0;"/><path d="M261,25 L261,35 L271,35 L261,25 " fill="#FBFB77" style="stroke: #A80036; stroke-width: 1.0;"/><text fill="#000000" font-family="sans-serif" font-size="13" lengthAdjust="spacingAndGlyphs" textLength="44" x="147" y="43.4951">Circular</text><text fill="#000000" font-family="sans-serif" font-size="13" font-weight="bold" lengthAdjust="spacingAndGlyphs" textLength="61" x="195" y="43.4951">Definition</text><text fill="#000000" font-family="sans-serif" font-size="13" lengthAdjust="spacingAndGlyphs" textLength="71" x="147" y="59.8467">But Different</text><text fill="#000000" font-family="sans-serif" font-size="13" font-weight="bold" lengthAdjust="spacingAndGlyphs" textLength="18" x="222" y="59.8467">Ids</text><!--link Action to Tariff1--><path d="M491.246,53.79 C435.079,61.515 353.801,78.436 292,115 C268.208,129.076 246.939,151.69 231.505,170.974 " fill="none" id="Action-Tariff1" style="stroke: #A80036; stroke-width: 1.0;"/><polygon fill="#A80036" points="228.105,175.288,236.8169,170.6943,231.1995,171.3606,230.5331,165.7432,228.105,175.288" style="stroke: #A80036; stroke-width: 1.0;"/><text fill="#000000" font-family="sans-serif" font-size="13" lengthAdjust="spacingAndGlyphs" textLength="19" x="293" y="129.4951">OK</text><!--link Action to Tariff2--><path d="M533.538,85.299 C517.431,111.25 496.181,145.486 480.324,171.034 " fill="none" id="Action-Tariff2" style="stroke: #A80036; stroke-width: 1.0;"/><polygon fill="#A80036" points="477.628,175.378,485.7724,169.8401,480.2645,171.1296,478.975,165.6217,477.628,175.378" style="stroke: #A80036; stroke-width: 1.0;"/><text fill="#000000" font-family="sans-serif" font-size="13" lengthAdjust="spacingAndGlyphs" textLength="19" x="515" y="129.4951">OK</text><!--link Action to MarketingTariff--><path d="M491.254,66.119 C444.712,83.123 385.666,113.342 357,163 C321.985,223.655 366.136,298.796 406.582,348.784 " fill="none" id="Action-MarketingTariff" style="stroke: #A80036; stroke-width: 1.0;"/><polygon fill="#A80036" points="409.982,352.939,407.3796,343.4402,406.8162,349.0689,401.1875,348.5055,409.982,352.939" style="stroke: #A80036; stroke-width: 1.0;"/><text fill="#000000" font-family="sans-serif" font-size="13" lengthAdjust="spacingAndGlyphs" textLength="19" x="358" y="213.4951">OK</text><!--link MarketingTariff to Action--><path d="M491.495,352.765 C508.396,324.565 527.494,288.156 538,253 C554.315,198.405 557.692,132.334 557.909,90.115 " fill="none" id="MarketingTariff-Action" style="stroke: #A80036; stroke-width: 1.0; stroke-dasharray: 7.0,7.0;"/><polygon fill="#A80036" points="557.921,85.087,553.9004,94.0778,557.9096,90.087,561.9004,94.0961,557.921,85.087" style="stroke: #A80036; stroke-width: 1.0;"/><text fill="#000000" font-family="sans-serif" font-size="13" lengthAdjust="spacingAndGlyphs" textLength="27" x="573.5" y="196.9951">BAD</text><text fill="#000000" font-family="sans-serif" font-size="13" lengthAdjust="spacingAndGlyphs" textLength="48" x="563" y="213.3467">(Circular</text><text fill="#000000" font-family="sans-serif" font-size="13" lengthAdjust="spacingAndGlyphs" textLength="62" x="556" y="229.6982">Reference)</text><!--link Action to MarketingTariff1--><path d="M622.503,59.951 C734.539,83.134 951,136.987 951,207 C951,207 951,207 951,544 C951,619.381 867.135,659.202 797.141,679.31 " fill="none" id="Action-MarketingTariff1" style="stroke: #A80036; stroke-width: 1.0; stroke-dasharray: 7.0,7.0;"/><polygon fill="#A80036" points="792.127,680.724,801.8748,682.1313,796.9393,679.367,799.7036,674.4315,792.127,680.724" style="stroke: #A80036; stroke-width: 1.0;"/><text fill="#000000" font-family="sans-serif" font-size="13" lengthAdjust="spacingAndGlyphs" textLength="27" x="964" y="393.4951">BAD</text><text fill="#000000" font-family="sans-serif" font-size="13" lengthAdjust="spacingAndGlyphs" textLength="51" x="952" y="409.8467">(Different</text><text fill="#000000" font-family="sans-serif" font-size="13" lengthAdjust="spacingAndGlyphs" textLength="39" x="958" y="426.1982">Fields)</text><!--link Tariff1 to MarketingTariff--><path d="M232.01,240.835 C248.175,259.55 270.009,282.993 292,301 C316.03,320.677 344.142,339.408 370.33,355.347 " fill="none" id="Tariff1-MarketingTariff" style="stroke: #A80036; stroke-width: 1.0;"/><polygon fill="#A80036" points="374.855,358.084,369.2264,350.002,370.5774,355.4952,365.0842,356.8462,374.855,358.084" style="stroke: #A80036; stroke-width: 1.0;"/><text fill="#000000" font-family="sans-serif" font-size="13" lengthAdjust="spacingAndGlyphs" textLength="19" x="293" y="297.4951">OK</text><!--link Tariff2 to MarketingTariff--><path d="M458,240.683 C458,269.615 458,313.041 458,347.77 " fill="none" id="Tariff2-MarketingTariff" style="stroke: #A80036; stroke-width: 1.0;"/><polygon fill="#A80036" points="458,352.828,462,343.828,458,347.828,454,343.828,458,352.828" style="stroke: #A80036; stroke-width: 1.0;"/><text fill="#000000" font-family="sans-serif" font-size="13" lengthAdjust="spacingAndGlyphs" textLength="19" x="459" y="297.4951">OK</text><!--link Action to MarketingDevice--><path d="M612.866,85.097 C646.136,107.488 688.651,136.101 724.13,159.978 " fill="none" id="Action-MarketingDevice" style="stroke: #A80036; stroke-width: 1.0;"/><polygon fill="#A80036" points="728.42,162.865,723.1873,154.5212,724.2721,160.0731,718.7202,161.1578,728.42,162.865" style="stroke: #A80036; stroke-width: 1.0;"/><text fill="#000000" font-family="sans-serif" font-size="13" lengthAdjust="spacingAndGlyphs" textLength="19" x="684" y="129.4951">OK</text><!--link MarketingTariff to TariffCategory--><path d="M458,456.328 C458,474.851 458,495.209 458,511.431 " fill="none" id="MarketingTariff-TariffCategory" style="stroke: #A80036; stroke-width: 1.0;"/><polygon fill="#A80036" points="458,516.765,462,507.765,458,511.765,454,507.765,458,516.765" style="stroke: #A80036; stroke-width: 1.0;"/><!--link MarketingDevice to MarketingDeviceParent--><path d="M794,253.135 C794,289.688 794,340.684 794,372.891 " fill="none" id="MarketingDevice-MarketingDeviceParent" style="stroke: #A80036; stroke-width: 1.0;"/><polygon fill="#A80036" points="794,378.286,798,369.286,794,373.286,790,369.286,794,378.286" style="stroke: #A80036; stroke-width: 1.0;"/><text fill="#000000" font-family="sans-serif" font-size="13" lengthAdjust="spacingAndGlyphs" textLength="19" x="795" y="297.4951">OK</text><!--link MarketingTariff1 to MarketingTariffParent--><path d="M704,744.105 C704,767.494 704,795.637 704,816.5745 " fill="none" id="MarketingTariff1-MarketingTariffParent" style="stroke: #A80036; stroke-width: 1.0;"/><polygon fill="#A80036" points="704,821.735,708,812.735,704,816.735,700,812.735,704,821.735" style="stroke: #A80036; stroke-width: 1.0;"/><text fill="#000000" font-family="sans-serif" font-size="13" lengthAdjust="spacingAndGlyphs" textLength="19" x="705" y="788.4951">OK</text><!--link MarketingTariff to Note--><path d="M394.698,456.328 C366.567,478.916 335.037,504.232 313.594,521.449 " fill="none" id="MarketingTariff-Note" style="stroke: #A80036; stroke-width: 1.0; stroke-dasharray: 7.0,7.0;"/><!--link Note to MarketingTariff1--><path d="M313.777,564.667 C326.756,574.306 343.085,585.317 359,593 C442.305,633.216 544.371,661.986 615.793,679.127 " fill="none" id="Note-MarketingTariff1" style="stroke: #A80036; stroke-width: 1.0; stroke-dasharray: 7.0,7.0;"/><!--link ChildRegion to ParentRegion--><path d="M57,79.012 C57,105.251 57,142.648 57,170.247 " fill="none" id="ChildRegion-ParentRegion" style="stroke: #A80036; stroke-width: 1.0;"/><polygon fill="#A80036" points="57,175.281,61,166.281,57,170.281,53,166.281,57,175.281" style="stroke: #A80036; stroke-width: 1.0;"/><text fill="#000000" font-family="sans-serif" font-size="13" lengthAdjust="spacingAndGlyphs" textLength="19" x="58" y="129.4951">OK</text><!--
@startuml AllowedRelations

object Action {
  <b>Id = 123
  Tariffs = <b>[234, 345]
  MarketingTariff = <b>456
  MarketingDevices = <b>[567]
}

object "Product" as Tariff1 {
  <b>Id = 234
  Type = "Tariff"
  MarketingProduct = <b>456
}

object "Product" as Tariff2 {
  <b>Id = 345
  Type = "Tariff"
  MarketingProduct = <b>456
}

package "Product-MarketingTariff" <<Frame>> {
  object "MarketingProduct" as MarketingTariff {
    <b>Id = 456
    <b>Modified = 15 : 00
    Type = "MarketingTariff"
    Title = "Маркетинговый тариф"
    Category = <b>890
    Actions = <b>[123]
  }

  object TariffCategory {
    <b>Id = 890
    Alias = "tariff"
  }
}



package "Action-MarketingTariff" <<Frame>> {
  object "MarketingProduct" as MarketingTariff1 {
    <b>Id = 456
    <b>Modified = 15 : 00
    Type = "MarketingTariff"
    Description = "Описание тарифа"
    Parent = <b>789
  }

  object "MarketingProduct" as MarketingTariffParent {
    <b>Id = 789
    Alias = "parent_tariff"
  }
}

object "MarketingProduct" as MarketingDevice {
  <b>Id = 567
  <b>Modified = 14 : 00
  Type = "MarketingDevice"
  Description = "Описание оборудования"
  Parent = <b>678
}

object "MarketingProduct" as MarketingDeviceParent {
  <b>Id = 678
  Alias = "parent_device"
}



Action - -> Tariff1 : OK
Action - -> Tariff2 : OK
Action - -> MarketingTariff : OK
Action ..> MarketingTariff1 : BAD\n(Different\nFields)
Tariff1 - -> MarketingTariff : OK
Tariff2 - -> MarketingTariff : OK
Action - -> MarketingDevice : OK
MarketingTariff - -> TariffCategory
MarketingTariff ..> Action: BAD\n(Circular\nReference)
MarketingDevice - -> MarketingDeviceParent : OK
MarketingTariff1 - -> MarketingTariffParent : OK

note "Same <b>Id</b>\nDifferent <b>Fields</b>" as Note
MarketingTariff .. Note
Note .. MarketingTariff1

object "Region" as ParentRegion {
  <b>Id = 1234
  Name = "Российя"
  Parent = <b>null
}

object "Region" as ChildRegion {
  <b>Id = 3456
  Name = "Москва"
  Parent = <b>1234
}

ChildRegion - -> ParentRegion : OK
note right of ChildRegion
  Circular <b>Definition
  But Different <b>Ids
endnote

@enduml

PlantUML version 1.2018.03(Thu Apr 05 19:59:15 MSK 2018)
(GPL source distribution)
Java Runtime: Java(TM) SE Runtime Environment
JVM: Java HotSpot(TM) 64-Bit Server VM
Java Version: 1.8.0_151-b12
Operating System: Windows 10
OS Version: 10.0
Default Encoding: Cp1251
Language: en
Country: US
--></g></svg>